<svg xmlns:dc="http://purl.org/dc/elements/1.1/" xmlns:cc="http://creativecommons.org/ns#" xmlns:rdf="http://www.w3.org/1999/02/22-rdf-syntax-ns#" xmlns:svg="http://www.w3.org/2000/svg" xmlns="http://www.w3.org/2000/svg" xmlns:sodipodi="http://sodipodi.sourceforge.net/DTD/sodipodi-0.dtd" xmlns:inkscape="http://www.inkscape.org/namespaces/inkscape" viewBox="0 0 8.4666665 10.583333625" version="1.1" x="0px" y="0px"><g transform="translate(0,-288.53332)"><path d="m 2.5422843,293.49241 a 0.42285473,0.42285473 0 0 0 -0.0014,0.8404 15.222772,15.222772 0 0 0 3.4642324,-10e-4 0.68713898,0.68713898 0 1 0 -0.2936528,-1.33526 1.1099937,1.1099937 0 0 0 -2.1585387,-0.50963 0.73647983,0.73647983 0 0 0 -1.0106757,1.00624 z" style="" fill="#000000" fill-opacity="1" stroke="none"/><path d="m 6.6686843,293.99595 a 0.81943004,0.81943004 0 0 0 -0.8060467,-1.16445 1.2422848,1.2422848 0 0 0 -0.7436387,-1.18153 1.1099937,1.1099937 0 0 1 1.9162405,0.94933 0.68713898,0.68713898 0 1 1 0.29366,1.33525 15.222772,15.222772 0 0 1 -0.6602151,0.0614 z" style="" fill="#000000" fill-opacity="1" stroke="none"/><path d="m 2.0379684,293.84376 a 15.222772,15.222772 0 0 1 -1.13381297,-0.0865 0.42285473,0.42285473 0 0 1 0.0014,-0.84039 0.73647983,0.73647983 0 0 1 1.01067577,-1.00624 1.1099937,1.1099937 0 0 1 2.0646356,-0.18705 1.2422848,1.2422848 0 0 0 -0.5039099,0.58068 0.86877083,0.86877083 0 0 0 -1.1189933,1.10361 0.55514579,0.55514579 0 0 0 -0.3199603,0.43592 z" style="" fill="#000000" fill-opacity="1" stroke="none"/></g><text x="0" y="23.4666669" fill="#000000" font-size="5px" font-weight="bold" font-family="'Helvetica Neue', Helvetica, Arial-Unicode, Arial, Sans-serif">Created by Pham Duy Phuong Hung</text><text x="0" y="28.4666669" fill="#000000" font-size="5px" font-weight="bold" font-family="'Helvetica Neue', Helvetica, Arial-Unicode, Arial, Sans-serif">from the Noun Project</text></svg>