<svg xmlns="http://www.w3.org/2000/svg" xmlns:xlink="http://www.w3.org/1999/xlink" version="1.0" x="0px" y="0px" viewBox="0 0 100 125" enable-background="new 0 0 100 100" xml:space="preserve"><path d="M56.6400948,65.5230408c-4.9980354-0.3642807-16.4441719,17.0320053-11.6640511,20.2709045  C63.4060364,97.4590988,55.0385551,65.4062805,56.6400948,65.5230408z"/><path d="M78.805748,67.233757c-3.962738-0.2888107-13.0378952,13.5039902-9.2478638,16.0719604  C84.1702652,92.5545502,77.5360641,67.1411896,78.805748,67.233757z"/><path d="M28.2755356,65.7900314c-3.962698-0.2888031-13.0378962,13.5039978-9.2479095,16.0719681  C33.640007,91.1108322,27.0058022,65.697464,28.2755356,65.7900314z"/><path d="M65.3024139,9.9398003c-4.9980316-0.3642788-16.4441681,17.0320072-11.6640472,20.2709045  C72.0683594,41.8758583,63.7008781,9.8230448,65.3024139,9.9398003z"/><path d="M87.468071,11.6505175c-3.962738-0.288806-13.0378952,13.503993-9.2478638,16.0719643  C92.8325882,36.9713173,86.1983871,11.55795,87.468071,11.6505175z"/><path d="M36.9378586,10.2067966c-3.9626999-0.288805-13.0378971,13.503994-9.2479095,16.0719643  C42.3023758,35.5275955,35.6681252,10.1142292,36.9378586,10.2067966z"/><path d="M47.6322632,35.3806152c-5.5534439-0.4047699-18.2715149,18.9246864-12.9602203,22.5235023  C55.1501122,70.8655243,45.8528137,35.2509041,47.6322632,35.3806152z"/><path d="M72.2609863,37.2814445c-4.402977-0.3209229-14.4867287,15.0045967-10.2755852,17.8579369  C78.2216187,65.4159775,70.8502197,37.1785698,72.2609863,37.2814445z"/><path d="M16.1156883,35.6773071C11.7126675,35.3563843,1.6290059,50.6819,5.8401508,53.5352402  C22.0763226,63.8118362,14.7048798,35.5744286,16.1156883,35.6773071z"/><path d="M95.5203552,35.6773071C91.1172943,35.3563843,81.0336304,50.6819,85.2447739,53.5352402  C101.4809875,63.8118362,94.1095047,35.5744286,95.5203552,35.6773071z"/><text x="0" y="115" fill="#000000" font-size="5px" font-weight="bold" font-family="'Helvetica Neue', Helvetica, Arial-Unicode, Arial, Sans-serif">Created by Alexander Skowalsky</text><text x="0" y="120" fill="#000000" font-size="5px" font-weight="bold" font-family="'Helvetica Neue', Helvetica, Arial-Unicode, Arial, Sans-serif">from the Noun Project</text></svg>