<svg xmlns="http://www.w3.org/2000/svg" data-name="Layer 1" viewBox="0 0 100 125" x="0px" y="0px"><path d="m89.387,43.889c-.135-1.594-1.33-3.352-3.044-4.479-1.569-1.031-3.342-1.407-5.091-1.119-.621-4.082-3.45-7.881-8.781-7.881-3.112,0-5.776,1.349-7.634,2.938-.963-3.196-4.717-5.59-9.197-5.59-5.207,0-9.444,3.23-9.444,7.2,0,.656.135,1.288.363,1.899-3.04-.698-5.961-.228-7.996,1.41-1.398,1.125-2.201,2.661-2.348,4.375-1.94-1.493-4.642-2.723-7.77-2.723-2.871,0-5.08.965-6.565,2.869-1.005,1.288-1.616,2.982-1.869,5.004-2.699-.361-5.282.276-7.207,1.814-1.395,1.115-2.196,2.526-2.196,3.871,0,3.31,3.354,5.678,9.443,6.669,5.065.824,10.242,1.236,15.493,1.236,5.05,0,10.168-.381,15.321-1.143,5.921-.876,9.457-3.404,9.457-6.762,0-.949-.294-1.867-.834-2.71,3.655.24,7.373.474,11.158.474,3.205,0,6.456-.167,9.752-.637,5.63-.803,8.991-3.284,8.991-6.636,0-.026-.001-.053-.003-.079Zm-9.254,4.851c-7.205,1.028-14.275.561-21.113.11-.6-.04-1.199-.079-1.799-.118-.034-.002-.064.012-.097.013-.065.003-.127.01-.19.026-.059.015-.112.034-.166.06-.054.025-.104.054-.153.089-.053.038-.098.081-.141.129-.022.025-.052.039-.073.066-.016.022-.019.047-.032.07-.033.054-.057.11-.079.171-.022.061-.04.119-.049.182-.004.026-.018.048-.02.074-.002.034.012.064.013.098.003.065.01.126.026.189.015.059.034.113.06.167.025.054.053.103.089.152.038.053.081.098.129.142.025.022.039.052.066.072,1.184.868,1.836,1.95,1.836,3.046,0,2.756-4.055,4.338-7.849,4.899-10.319,1.527-20.492,1.497-30.236-.088-4.923-.801-7.862-2.599-7.862-4.811,0-.747.57-1.666,1.488-2.4.813-.65,3.089-2.074,6.644-1.269.027.006.052-.002.078.002.026.004.048.018.076.02.018.001.037.002.055.002.029,0,.055-.014.083-.016.06-.005.116-.017.174-.034.059-.017.114-.037.167-.065.051-.026.096-.056.142-.091.049-.038.092-.079.133-.125.037-.042.069-.085.098-.134.034-.056.058-.115.08-.178.011-.032.033-.057.041-.091.006-.026-.002-.05.002-.076.004-.027.018-.05.02-.078.272-4.739,2.518-7.142,6.674-7.142,3.608,0,6.559,1.923,8.118,3.722.013.016.033.022.047.036.043.044.093.077.144.111.051.035.099.071.155.095.037.016.077.021.116.031.077.022.153.042.233.043.005,0,.009.003.015.003.029,0,.059-.001.089-.004.022-.002.04-.015.061-.019.084-.013.163-.037.242-.073.039-.018.073-.039.109-.061.039-.025.083-.036.118-.067.028-.024.04-.057.064-.083.029-.032.053-.065.078-.101.045-.065.084-.13.111-.203.016-.042.025-.085.035-.13.015-.072.026-.141.024-.214,0-.025.01-.048.008-.074-.002-.029-.001-.057,0-.087,0-.114.001-.269-.035-.449-.369-1.82.188-3.435,1.569-4.546,1.956-1.574,5.051-1.758,8.153-.506.141.096.33.176.585.223.066.012.13.016.195.015,1.003-.01,1.141-.641,1.153-.914.008-.177-.032-.684-.614-.911-.766-.856-1.137-1.713-1.137-2.685,0-2.932,3.392-5.317,7.56-5.317s7.56,2.385,7.56,5.317c0,.117-.006.235-.017.353-.003.031.009.058.009.088,0,.065.007.126.02.19.012.059.028.114.051.169.023.055.051.104.084.154.036.054.075.103.121.149.021.021.032.049.056.068.023.019.052.024.077.041.052.036.107.064.166.088.06.025.119.043.182.055.029.005.053.022.083.025.03.003.057-.009.087-.009.066,0,.128-.007.192-.02.058-.012.113-.027.167-.05.055-.023.104-.051.155-.084.055-.036.103-.075.149-.122.021-.021.048-.032.067-.055,1.466-1.79,4.238-3.703,7.621-3.703,4.894,0,6.841,3.884,7.022,7.209.003.046.024.085.032.129.008.04.002.08.015.12.006.018.02.03.027.047.026.065.063.12.102.176.03.044.056.089.092.127.045.047.099.08.152.117.044.03.085.064.134.086.056.026.118.035.179.05.057.013.111.031.17.033.013,0,.023.007.036.007.017,0,.035,0,.052-.001.044-.002.081-.024.124-.032.042-.008.083-.002.125-.016,2.077-.696,3.758.102,4.576.639,1.196.786,2.093,2.024,2.198,3.026-.038,2.717-3.827,4.225-7.374,4.731Zm-7.912,11.254c.112.065.15.21.085.322-.044.075-.123.117-.203.117-.04,0-.081-.01-.118-.032l-.642-.375.003.362c0,.13-.104.236-.234.237h-.002c-.129,0-.234-.104-.235-.234l-.005-.642-.346-.202.007.858c0,.13-.104.236-.234.237h-.002c-.129,0-.234-.104-.235-.234l-.009-1.138-1.201-.702-.003,1.29.966.608c.11.069.143.215.074.325-.045.071-.121.11-.199.11-.043,0-.086-.012-.125-.036l-.717-.451v.407s.524.33.524.33c.11.069.143.215.074.325-.045.071-.121.11-.199.11-.043,0-.086-.012-.125-.036l-.275-.173-.002.823c0,.13-.106.235-.235.235h0c-.13,0-.235-.106-.235-.236l.002-.82-.26.161c-.11.069-.255.034-.324-.076-.068-.111-.034-.256.076-.324l.509-.315v-.413s-.706.437-.706.437c-.111.069-.256.034-.324-.076-.068-.111-.034-.256.076-.324l.955-.591.003-1.285-1.175.693-.009,1.139c0,.129-.106.234-.235.234h-.002c-.13-.001-.235-.107-.234-.237l.007-.857-.346.204-.005.638c-.001.129-.106.234-.235.234h-.002c-.13-.001-.235-.107-.234-.237l.003-.356-.657.387c-.038.022-.079.033-.119.033-.081,0-.159-.041-.203-.116-.066-.112-.029-.256.083-.322l.618-.364-.245-.123c-.116-.058-.164-.199-.105-.316.058-.117.2-.164.316-.105l.518.259.361-.213-.734-.366c-.116-.058-.164-.199-.106-.316.058-.116.199-.163.316-.105l1.007.503,1.19-.701-1.188-.694-1.008.503c-.034.017-.07.025-.105.025-.086,0-.17-.048-.211-.13-.058-.116-.011-.258.105-.316l.732-.366-.362-.212-.515.257c-.034.017-.07.025-.105.025-.086,0-.17-.048-.211-.13-.058-.116-.011-.258.105-.316l.239-.119-.62-.362c-.112-.065-.15-.21-.085-.322.066-.112.21-.15.322-.084l.667.39-.003-.363c0-.13.104-.236.234-.237.128-.003.236.104.237.234l.005.643.346.202-.007-.859c-.001-.13.104-.236.234-.237h.002c.129,0,.234.104.235.234l.009,1.139,1.176.687.003-1.328-.955-.59c-.111-.068-.145-.213-.076-.324s.213-.145.324-.076l.708.438v-.413s-.512-.317-.512-.317c-.111-.068-.145-.213-.076-.324.068-.11.213-.145.324-.076l.266.165.002-.785c0-.13.106-.235.235-.235h0c.13,0,.235.106.235.236l-.002.779.269-.169c.11-.069.255-.036.325.074.069.11.036.255-.074.325l-.521.328v.408s.714-.45.714-.45c.11-.07.255-.036.325.074s.036.255-.074.325l-.967.609-.003,1.326,1.17-.69.009-1.139c0-.13.104-.241.237-.234.13.001.235.107.234.237l-.007.857.346-.204.005-.638c.001-.129.106-.234.235-.234h.002c.13.001.235.107.234.237l-.003.356.662-.39c.112-.066.256-.029.322.083.066.112.029.256-.083.322l-.623.367.246.123c.116.058.164.199.106.316-.041.083-.124.13-.211.13-.035,0-.071-.008-.105-.025l-.518-.259-.361.213.734.367c.116.058.164.199.106.316-.041.083-.124.13-.211.13-.035,0-.071-.008-.105-.025l-1.007-.503-1.185.699,1.214.709,1.008-.503c.117-.058.258-.011.316.105.058.116.011.258-.106.316l-.733.366.362.212.515-.257c.116-.058.258-.011.316.105.058.116.011.258-.106.316l-.239.119.595.347Zm-8.555,5.036c.112.065.15.21.085.322-.044.075-.123.117-.204.117-.04,0-.081-.01-.118-.032l-.642-.375.003.362c0,.13-.104.236-.234.237h-.002c-.129,0-.234-.104-.235-.234l-.005-.642-.346-.202.007.858c0,.13-.104.236-.234.237h-.002c-.129,0-.234-.104-.235-.234l-.009-1.138-1.201-.702-.003,1.29.967.608c.11.069.143.215.074.325-.045.071-.121.11-.199.11-.043,0-.086-.012-.125-.036l-.717-.451v.407s.524.33.524.33c.11.069.143.215.074.325-.045.071-.121.11-.199.11-.043,0-.086-.012-.125-.036l-.275-.173-.002.823c0,.13-.106.235-.235.235h0c-.13,0-.235-.106-.235-.236l.002-.82-.26.161c-.111.069-.256.034-.324-.076-.068-.111-.034-.256.076-.324l.509-.315v-.414s-.705.437-.705.437c-.111.069-.256.034-.324-.076-.068-.111-.034-.256.076-.324l.955-.591.003-1.285-1.175.693-.009,1.139c0,.129-.106.234-.235.234h-.002c-.13-.001-.235-.107-.234-.237l.007-.857-.346.204-.005.639c0,.129-.106.234-.235.234h-.002c-.13-.001-.235-.107-.234-.237l.003-.356-.657.387c-.038.022-.079.033-.119.033-.081,0-.159-.041-.203-.116-.066-.112-.029-.256.083-.322l.618-.364-.245-.122c-.116-.058-.164-.199-.106-.316.058-.116.199-.164.316-.105l.518.259.361-.213-.734-.367c-.116-.058-.164-.199-.105-.316.058-.116.199-.164.316-.105l1.007.503,1.19-.701-1.188-.694-1.008.503c-.034.017-.07.025-.105.025-.086,0-.17-.048-.211-.13-.058-.116-.011-.258.106-.316l.732-.366-.362-.212-.515.257c-.034.017-.07.025-.105.025-.086,0-.17-.048-.211-.13-.058-.116-.011-.258.105-.316l.239-.119-.62-.362c-.112-.065-.15-.21-.085-.322.065-.112.21-.15.322-.084l.667.39-.003-.363c-.001-.13.104-.236.234-.237.132-.009.236.104.237.234l.005.642.346.202-.007-.859c0-.13.104-.236.234-.237h.002c.129,0,.234.104.235.234l.009,1.139,1.176.687.003-1.328-.955-.59c-.111-.068-.145-.213-.076-.324s.213-.145.324-.076l.708.438v-.412s-.512-.317-.512-.317c-.111-.068-.145-.213-.076-.324s.214-.145.324-.076l.266.165.002-.785c0-.13.106-.235.235-.235h0c.13,0,.235.106.235.236l-.002.779.269-.169c.11-.069.255-.036.325.074.069.11.036.255-.074.325l-.521.328v.408s.714-.45.714-.45c.11-.07.255-.036.325.074.069.11.036.255-.074.325l-.967.609-.003,1.326,1.17-.69.009-1.139c.001-.129.106-.234.235-.234h.002c.13.001.235.107.234.237l-.007.856.346-.204.005-.638c.001-.13.103-.232.237-.234.13.001.235.107.234.237l-.003.356.662-.39c.112-.066.256-.029.322.083.066.112.029.256-.083.322l-.623.367.245.122c.116.058.164.199.106.316-.041.083-.124.13-.211.13-.035,0-.071-.008-.105-.025l-.519-.259-.361.213.734.367c.116.058.164.199.106.316-.041.083-.124.13-.211.13-.035,0-.071-.008-.105-.025l-1.008-.503-1.185.699,1.214.709,1.008-.503c.116-.058.258-.011.316.105.058.116.011.258-.105.316l-.732.366.362.212.515-.257c.116-.058.258-.011.316.105.058.116.011.258-.106.316l-.239.119.595.347Zm-9.543,4.771c.112.065.15.21.085.322-.044.075-.123.117-.204.117-.04,0-.081-.01-.118-.032l-.642-.375.003.362c0,.13-.104.236-.234.237h-.002c-.129,0-.234-.104-.235-.234l-.005-.642-.346-.202.007.858c0,.13-.104.236-.234.237h-.002c-.129,0-.234-.104-.235-.234l-.009-1.138-1.201-.702-.003,1.29.966.608c.11.069.143.215.074.325-.045.071-.121.11-.199.11-.043,0-.086-.012-.125-.036l-.717-.451v.407s.524.33.524.33c.11.069.143.215.074.325-.045.071-.121.11-.199.11-.043,0-.086-.012-.125-.036l-.275-.173-.002.823c0,.13-.106.235-.235.235h0c-.13,0-.235-.106-.235-.236l.002-.82-.26.161c-.11.069-.256.034-.324-.076-.068-.111-.034-.256.076-.324l.509-.315v-.413s-.705.437-.705.437c-.111.069-.256.034-.324-.076-.068-.111-.034-.256.076-.324l.955-.591.003-1.285-1.175.693-.009,1.139c0,.129-.106.234-.235.234h-.002c-.13-.001-.235-.107-.234-.237l.007-.857-.346.204-.005.638c0,.129-.106.234-.235.234h-.002c-.13-.001-.235-.107-.234-.237l.003-.356-.657.387c-.038.022-.079.033-.119.033-.081,0-.159-.041-.203-.116-.066-.112-.029-.256.083-.322l.618-.364-.245-.122c-.116-.058-.164-.199-.106-.316.058-.117.199-.164.316-.105l.518.259.361-.213-.734-.367c-.116-.058-.164-.199-.106-.316.058-.116.199-.164.316-.105l1.007.503,1.19-.701-1.188-.694-1.008.503c-.034.017-.07.025-.105.025-.086,0-.17-.048-.211-.13-.058-.116-.011-.258.105-.316l.732-.366-.362-.212-.515.257c-.034.017-.07.025-.105.025-.086,0-.17-.048-.211-.13-.058-.116-.011-.258.106-.316l.239-.119-.62-.362c-.112-.065-.15-.21-.085-.322.066-.112.21-.15.322-.084l.667.39-.003-.363c0-.13.104-.236.234-.237h.002c.129,0,.234.104.235.234l.005.642.346.202-.007-.859c0-.13.104-.236.234-.237h.002c.129,0,.234.104.235.234l.009,1.139,1.176.687.003-1.328-.955-.59c-.111-.068-.145-.213-.076-.324s.213-.145.324-.076l.708.438v-.412s-.512-.317-.512-.317c-.111-.068-.145-.213-.076-.324s.214-.145.324-.076l.266.165.002-.785c0-.13.106-.235.235-.235h0c.13,0,.235.106.235.236l-.002.779.269-.169c.11-.069.255-.036.325.074.069.11.036.255-.074.325l-.521.328v.408s.714-.45.714-.45c.11-.069.255-.036.325.074.069.11.036.255-.074.325l-.967.609-.003,1.326,1.17-.69.009-1.139c.001-.129.106-.234.235-.234h.002c.13.001.235.107.234.237l-.007.857.346-.204.005-.638c.001-.13.105-.233.237-.234.13.001.235.107.234.237l-.003.356.662-.39c.112-.066.256-.029.322.083.066.112.029.256-.083.322l-.622.367.245.123c.116.058.164.199.106.316-.041.083-.124.13-.211.13-.035,0-.071-.008-.105-.025l-.519-.259-.36.213.734.367c.116.058.164.199.106.316-.041.083-.124.13-.211.13-.035,0-.071-.008-.105-.025l-1.007-.503-1.185.699,1.214.709,1.008-.503c.116-.058.258-.011.316.105s.011.258-.105.316l-.733.366.362.212.515-.257c.116-.058.258-.011.316.105.058.116.011.258-.106.316l-.239.119.595.347Zm-11.044-1.638c.112.065.15.21.085.322-.044.075-.123.117-.203.117-.04,0-.081-.01-.118-.032l-.642-.375.003.363c.001.13-.104.236-.234.237h-.002c-.129,0-.234-.104-.235-.234l-.005-.642-.346-.202.007.859c.001.13-.104.236-.234.237h-.002c-.129,0-.234-.104-.235-.234l-.009-1.139-1.201-.702-.003,1.29.967.608c.11.069.143.215.074.325-.045.071-.121.11-.199.11-.043,0-.086-.012-.125-.036l-.717-.451v.407s.524.33.524.33c.11.069.143.215.074.325-.045.071-.121.11-.199.11-.043,0-.086-.012-.125-.036l-.275-.173-.002.823c0,.13-.106.235-.235.235h0c-.13,0-.235-.106-.235-.236l.002-.82-.26.161c-.11.069-.256.034-.324-.076-.068-.111-.034-.256.076-.324l.509-.315v-.414s-.705.437-.705.437c-.11.069-.256.034-.324-.076-.068-.11-.034-.256.076-.324l.955-.591.003-1.285-1.175.693-.009,1.139c-.001.129-.106.234-.235.234h-.002c-.13-.001-.235-.107-.234-.237l.007-.857-.346.204-.005.638c0,.129-.106.234-.235.234h-.002c-.13-.001-.235-.107-.234-.237l.003-.356-.657.387c-.038.022-.079.033-.119.033-.081,0-.159-.041-.203-.116-.066-.112-.029-.256.083-.322l.618-.364-.245-.122c-.116-.058-.164-.199-.106-.316s.199-.164.316-.105l.518.259.361-.213-.734-.367c-.116-.058-.164-.199-.106-.316.058-.116.199-.164.316-.105l1.007.503,1.19-.702-1.188-.694-1.008.503c-.034.017-.07.025-.105.025-.086,0-.17-.048-.211-.13-.058-.116-.011-.258.106-.316l.733-.366-.362-.212-.515.257c-.034.017-.07.025-.105.025-.086,0-.169-.048-.211-.13-.058-.116-.011-.258.105-.316l.239-.12-.62-.362c-.112-.065-.15-.21-.085-.322.066-.112.21-.15.322-.084l.667.39-.003-.362c0-.13.104-.236.234-.237.124-.002.236.104.237.234l.005.642.346.202-.007-.859c0-.13.104-.236.234-.237h.002c.129,0,.234.104.235.234l.009,1.138,1.176.687.003-1.328-.955-.59c-.111-.068-.145-.213-.076-.324.068-.11.213-.145.324-.076l.708.438v-.412s-.512-.317-.512-.317c-.111-.068-.145-.213-.076-.324.069-.111.213-.145.324-.076l.266.165.002-.785c0-.13.106-.235.235-.235h0c.13,0,.235.106.235.236l-.002.779.269-.169c.11-.07.255-.036.325.074.069.11.036.255-.074.325l-.521.328v.408s.714-.45.714-.45c.11-.07.255-.036.325.074.069.11.036.255-.074.325l-.967.609-.003,1.326,1.17-.69.009-1.139c0-.13.104-.232.237-.234.13.001.235.107.234.237l-.007.857.347-.204.005-.638c0-.129.106-.234.235-.234h.002c.13.001.235.107.234.237l-.003.356.662-.39c.112-.066.256-.029.322.083.066.112.029.256-.083.322l-.622.367.245.123c.116.058.164.199.105.316-.041.083-.124.13-.211.13-.035,0-.071-.008-.105-.025l-.518-.259-.361.213.734.366c.116.058.164.199.105.316-.041.083-.124.13-.211.13-.035,0-.071-.008-.105-.025l-1.007-.503-1.185.699,1.214.709,1.008-.503c.116-.058.258-.011.316.105.058.116.011.258-.106.316l-.733.366.362.212.515-.257c.116-.058.258-.011.316.105.058.116.011.258-.106.316l-.239.119.595.347Zm39.366-10.535c.112.065.15.21.085.322-.044.075-.123.117-.203.117-.04,0-.081-.01-.118-.032l-.642-.375.003.362c.001.13-.104.236-.234.237h-.002c-.129,0-.234-.104-.235-.234l-.005-.642-.347-.202.007.859c0,.13-.104.236-.234.237h-.002c-.129,0-.234-.104-.235-.234l-.009-1.139-1.201-.702-.003,1.29.966.608c.11.069.143.215.074.325-.045.071-.121.11-.199.11-.043,0-.086-.012-.125-.036l-.717-.451v.407s.524.33.524.33c.11.069.143.215.074.325-.045.071-.121.11-.199.11-.043,0-.086-.012-.125-.036l-.275-.173-.002.823c0,.13-.106.235-.235.235h0c-.13,0-.235-.106-.235-.236l.002-.82-.26.161c-.11.069-.256.034-.324-.076-.068-.11-.034-.256.076-.324l.509-.315v-.413s-.705.437-.705.437c-.111.069-.256.034-.324-.076s-.034-.256.076-.324l.955-.591.003-1.285-1.175.693-.009,1.139c-.001.129-.106.234-.235.234h-.002c-.13-.001-.235-.107-.234-.237l.007-.857-.346.204-.005.638c-.001.129-.106.234-.235.234h-.002c-.13-.001-.235-.107-.234-.237l.003-.356-.657.387c-.038.022-.079.033-.119.033-.081,0-.159-.041-.203-.116-.066-.112-.029-.256.083-.322l.618-.364-.245-.122c-.116-.058-.164-.199-.106-.316.058-.116.199-.164.316-.105l.518.259.361-.213-.734-.367c-.116-.058-.164-.199-.105-.316.058-.116.199-.164.316-.105l1.007.503,1.19-.701-1.188-.694-1.008.503c-.034.017-.07.025-.105.025-.086,0-.17-.048-.211-.13-.058-.116-.011-.258.105-.316l.733-.366-.362-.212-.515.257c-.034.017-.07.025-.105.025-.086,0-.169-.048-.211-.13-.058-.116-.011-.258.105-.316l.239-.12-.62-.362c-.112-.065-.15-.21-.085-.322.066-.112.21-.151.322-.084l.667.39-.003-.362c0-.13.104-.236.234-.237.126-.006.236.104.237.234l.005.642.346.202-.007-.859c-.001-.13.104-.236.234-.237h.002c.129,0,.234.104.235.234l.009,1.138,1.176.687.003-1.328-.955-.59c-.111-.068-.145-.213-.076-.324s.213-.145.324-.076l.708.438v-.412s-.512-.317-.512-.317c-.111-.068-.145-.213-.076-.324.068-.11.213-.145.324-.076l.266.165.002-.785c0-.13.106-.235.235-.235h0c.13,0,.235.106.235.236l-.002.779.269-.169c.11-.069.255-.036.325.074.069.11.036.255-.074.325l-.521.328v.408s.714-.45.714-.45c.11-.069.255-.036.325.074.069.11.036.255-.074.325l-.967.609-.003,1.326,1.17-.69.009-1.139c0-.129.106-.234.235-.234h.002c.13.001.235.107.234.237l-.007.857.346-.204.005-.638c0-.129.106-.234.235-.234h.002c.13.001.235.107.234.237l-.003.356.662-.39c.112-.066.256-.029.322.083.066.112.029.256-.083.322l-.622.367.246.123c.116.058.164.199.106.316-.041.083-.124.13-.211.13-.035,0-.071-.008-.105-.025l-.519-.259-.361.213.734.367c.116.058.164.199.105.316-.041.083-.124.13-.211.13-.035,0-.071-.008-.105-.025l-1.007-.503-1.185.699,1.214.709,1.008-.503c.116-.058.258-.011.316.105.058.116.011.258-.106.316l-.732.365.362.212.515-.257c.116-.058.258-.011.316.105.058.116.011.258-.105.316l-.239.12.595.347Zm-48.901,11.96c.112.065.15.21.085.322-.044.075-.123.117-.204.117-.04,0-.081-.01-.118-.032l-.642-.375.003.362c0,.13-.104.236-.234.237h-.002c-.129,0-.234-.104-.235-.234l-.005-.642-.346-.202.007.859c0,.13-.104.236-.234.237h-.002c-.129,0-.234-.104-.235-.234l-.009-1.138-1.201-.702-.003,1.29.966.608c.11.069.143.215.074.325-.045.071-.121.11-.199.11-.043,0-.086-.012-.125-.036l-.717-.451v.407s.524.33.524.33c.11.069.143.215.074.325-.045.071-.121.11-.199.11-.043,0-.086-.012-.125-.036l-.275-.173-.002.823c0,.13-.106.235-.235.235h0c-.13,0-.235-.106-.235-.236l.002-.82-.26.161c-.111.069-.256.034-.324-.076s-.034-.256.076-.324l.509-.315v-.413s-.705.437-.705.437c-.111.069-.256.034-.324-.076-.068-.111-.034-.256.076-.324l.955-.59.003-1.285-1.175.693-.009,1.139c0,.129-.106.234-.235.234h-.002c-.13-.001-.235-.107-.234-.237l.007-.857-.347.204-.005.638c0,.129-.106.234-.235.234h-.002c-.13-.001-.235-.107-.234-.237l.003-.356-.657.387c-.038.022-.079.033-.119.033-.081,0-.159-.041-.203-.116-.066-.112-.029-.256.083-.322l.618-.364-.245-.122c-.116-.058-.164-.199-.106-.316.058-.116.199-.164.316-.105l.518.259.361-.213-.734-.367c-.116-.058-.164-.199-.105-.316.058-.116.199-.164.316-.105l1.007.503,1.19-.701-1.188-.694-1.008.503c-.034.017-.07.025-.105.025-.086,0-.17-.048-.211-.13-.058-.116-.011-.258.106-.316l.733-.366-.362-.212-.515.257c-.034.017-.07.025-.105.025-.086,0-.17-.048-.211-.13-.058-.116-.011-.258.106-.316l.239-.119-.62-.362c-.112-.065-.15-.21-.085-.322.065-.112.21-.15.322-.084l.667.39-.003-.363c-.001-.13.104-.236.234-.237h.002c.129,0,.234.104.235.234l.005.642.346.202-.007-.859c0-.13.104-.236.234-.237h.002c.129,0,.234.104.235.234l.009,1.138,1.176.687.003-1.328-.955-.59c-.111-.068-.145-.213-.076-.324.068-.111.213-.145.324-.076l.708.438v-.412s-.512-.317-.512-.317c-.111-.068-.145-.213-.076-.324.068-.11.213-.145.324-.076l.266.165.002-.785c0-.13.106-.235.235-.235h0c.13,0,.235.106.235.236l-.002.779.269-.169c.11-.07.255-.036.325.074.069.11.036.255-.074.325l-.521.328v.408s.714-.45.714-.45c.11-.069.255-.036.325.074.069.11.036.255-.074.325l-.967.609-.003,1.326,1.17-.69.009-1.139c.001-.129.106-.234.235-.234h.002c.13.001.235.107.234.237l-.007.857.346-.204.005-.638c.001-.129.106-.234.235-.234h.002c.13.001.235.107.234.237l-.003.356.662-.39c.112-.066.256-.029.322.083.066.112.029.256-.083.322l-.623.367.245.122c.116.058.164.199.106.316-.041.083-.124.13-.211.13-.035,0-.071-.008-.105-.025l-.518-.259-.361.212.734.367c.116.058.164.199.106.316-.041.083-.124.13-.211.13-.035,0-.071-.008-.105-.025l-1.007-.503-1.185.699,1.214.709,1.008-.503c.116-.058.258-.011.316.105.058.116.011.258-.105.316l-.732.366.362.212.515-.257c.116-.058.258-.011.316.105.058.116.011.258-.106.316l-.239.119.595.347Z"/><text x="0" y="115" fill="#000000" font-size="5px" font-weight="bold" font-family="'Helvetica Neue', Helvetica, Arial-Unicode, Arial, Sans-serif">Created by Nanik haq</text><text x="0" y="120" fill="#000000" font-size="5px" font-weight="bold" font-family="'Helvetica Neue', Helvetica, Arial-Unicode, Arial, Sans-serif">from the Noun Project</text></svg>